<svg id="Camada_1" data-name="Camada 1" xmlns="http://www.w3.org/2000/svg" viewBox="0 0 343.63 214.77"><defs><style>.cls-1{fill:#f6b61a;}.cls-2{fill:#2f3033;}</style></defs><rect class="cls-1" width="343.63" height="214.77" rx="10.74"/><path class="cls-2" d="M1023.14,440.43A21.49,21.49,0,0,1,1001.67,419a10.73,10.73,0,0,0-10.74-10.73H797.63A10.72,10.72,0,0,0,786.9,419a21.5,21.5,0,0,1-21.48,21.48,10.74,10.74,0,0,0-10.74,10.74V515.6a10.74,10.74,0,0,0,10.74,10.74,21.5,21.5,0,0,1,21.48,21.48,10.72,10.72,0,0,0,10.73,10.73h193.3a10.73,10.73,0,0,0,10.74-10.73,21.49,21.49,0,0,1,21.47-21.48,10.74,10.74,0,0,0,10.74-10.74V451.17A10.74,10.74,0,0,0,1023.14,440.43Z" transform="translate(-722.46 -376)"/><circle class="cls-1" cx="236.25" cy="107.38" r="10.74"/><circle class="cls-1" cx="107.38" cy="107.38" r="10.74"/><path class="cls-1" d="M870,507.2V459.57a5,5,0,0,1,7.61-4.24l38.53,23.81a5,5,0,0,1,0,8.49l-38.53,23.81A5,5,0,0,1,870,507.2Z" transform="translate(-722.46 -376)"/></svg>