<svg id="Investment_Dollar" data-name="Investment Dollar" xmlns="http://www.w3.org/2000/svg" viewBox="0 0 32 32"><defs><style>.cls-1{fill:#f6b61a;}.cls-2{fill:#2f3033;}</style></defs><path class="cls-1" d="M16,0A15.85,15.85,0,0,0,4,5.42V4A1,1,0,0,0,2,4V8A1,1,0,0,0,3,9H7A1,1,0,0,0,7,7H5.28A13.85,13.85,0,0,1,16,2,14,14,0,0,1,30,16a14.21,14.21,0,0,1-.5,3.73A1,1,0,0,0,30.19,21a.84.84,0,0,0,.27,0,1,1,0,0,0,1-.73A15.82,15.82,0,0,0,32,16,16,16,0,0,0,16,0Z"/><path class="cls-1" d="M29,23H25a1,1,0,0,0,0,2h1.72A13.85,13.85,0,0,1,16,30,14,14,0,0,1,2,16a14.21,14.21,0,0,1,.5-3.73A1,1,0,0,0,1.81,11a1,1,0,0,0-1.23.69A15.82,15.82,0,0,0,0,16,16,16,0,0,0,16,32a15.85,15.85,0,0,0,12-5.42V28a1,1,0,0,0,2,0V24A1,1,0,0,0,29,23Z"/><circle class="cls-2" cx="16" cy="16" r="10"/><path class="cls-1" d="M18.75,17.4a3.7,3.7,0,0,0-2.4-2.34,1.82,1.82,0,0,1-1.17-1c0-.08-.07-.26.2-.59.49-.57,1.65.29,1.66.3a1,1,0,1,0,1.22-1.58A4.63,4.63,0,0,0,17,11.54V11a1,1,0,0,0-2,0v.43a2.52,2.52,0,0,0-1.14.8,2.56,2.56,0,0,0-.61,2.37,3.7,3.7,0,0,0,2.4,2.34,1.82,1.82,0,0,1,1.17,1c0,.08.07.26-.2.59-.48.57-1.64-.28-1.66-.3a1,1,0,1,0-1.22,1.58,4.78,4.78,0,0,0,1.26.68V21a1,1,0,0,0,2,0v-.45a2.39,2.39,0,0,0,1.14-.78A2.56,2.56,0,0,0,18.75,17.4Z"/></svg>