<?xml version="1.0" encoding="UTF-8"?>
<svg data-name="Layer 2" viewBox="0 0 1474 322.82" xmlns="http://www.w3.org/2000/svg">
<defs>
<style>.cls-1{fill:#f9ad1d;}.cls-2{fill:#fbae17;}</style>
</defs>
<polygon class="cls-1" points="34.44 35.94 79.87 35.94 79.87 1.5 0 1.5 0 321.1 79.87 321.1 79.87 286.67 34.44 286.67"/>
<path class="cls-1" transform="translate(5278.3 1258.7)" d="m-5012.4-1208.4c-23-31.49-54-48.83-87.45-48.83h-9v34.44h9c22.56 0 44 12.65 60.37 35.62 17 23.9 26.41 55.77 26.41 89.74s-9.38 65.85-26.41 89.75c-16.38 23-37.81 35.62-60.37 35.62h-9v34.43h9c33.43 0 64.48-17.34 87.45-48.83 21.78-29.85 33.77-69.26 33.77-111s-11.99-81.08-33.77-110.94z"/>
<rect class="cls-1" x="77.09" y="90.97" width="49.97" height="41.25"/>
<rect class="cls-1" x="77.09" y="200.87" width="49.97" height="41.25"/>
<polygon class="cls-2" points="349.63 322.82 563.51 322.82 563.51 287.82 386.43 287.82 386.43 174.43 544.68 174.43 544.68 139.43 386.43 139.43 386.43 35 563.51 35 563.51 0 349.63 0"/>
<polygon class="cls-2" points="634.78 318.32 653.61 318.32 653.61 172.62 805.59 172.62 805.59 155.58 653.61 155.58 653.61 21.54 824.41 21.54 824.41 4.5 634.78 4.5"/>
<polygon class="cls-2" points="919 4.5 900.17 4.5 900.17 318.32 1081.7 318.32 1081.7 301.29 919 301.29"/>
<rect class="cls-2" x="1151.7" y="4.5" width="18.83" height="313.82"/>
<polygon class="cls-2" points="1474 4.5 1451.2 4.5 1356.6 146.17 1262.4 4.5 1239.6 4.5 1346.2 161.41 1239.6 318.32 1262 318.32 1356.6 176.21 1451.6 318.32 1474 318.32 1367.3 161.41"/>
</svg>
