<?xml version="1.0" encoding="UTF-8"?>
<svg data-name="Layer 2" viewBox="0 0 299.71 319.6" xmlns="http://www.w3.org/2000/svg">
<defs>
<style>.cls-1{fill:#f9ad1d;}</style>
</defs>
<polygon class="cls-1" points="34.44 34.44 79.87 34.44 79.87 0 0 0 0 319.6 79.87 319.6 79.87 285.17 34.44 285.17"/>
<path class="cls-1" transform="translate(5278.3 1257.2)" d="m-5012.4-1208.4c-23-31.49-54-48.83-87.45-48.83h-9v34.44h9c22.56 0 44 12.65 60.37 35.62 17 23.9 26.41 55.77 26.41 89.74s-9.38 65.85-26.41 89.75c-16.38 23-37.81 35.62-60.37 35.62h-9v34.43h9c33.43 0 64.48-17.34 87.45-48.83 21.78-29.85 33.77-69.26 33.77-111s-11.99-81.08-33.77-110.94z"/>
<rect class="cls-1" x="77.09" y="89.47" width="49.97" height="41.25"/>
<rect class="cls-1" x="77.09" y="199.37" width="49.97" height="41.25"/>
</svg>
