<?xml version="1.0" encoding="UTF-8"?>
<svg data-name="Layer 2" viewBox="0 0 1496.4 412.19" xmlns="http://www.w3.org/2000/svg">
<defs>
<style>.cls-1{fill:#f9ad1d;}.cls-2{fill:#fbae17;}.cls-3{fill:#fff;}</style>
</defs>
<polygon class="cls-1" points="34.44 35.94 79.87 35.94 79.87 1.5 0 1.5 0 321.1 79.87 321.1 79.87 286.67 34.44 286.67"/>
<path class="cls-1" transform="translate(5278.3 1258.7)" d="m-5012.4-1208.4c-23-31.49-54-48.83-87.45-48.83h-9v34.44h9c22.56 0 44 12.65 60.37 35.62 17 23.9 26.41 55.77 26.41 89.74s-9.38 65.85-26.41 89.75c-16.38 23-37.81 35.62-60.37 35.62h-9v34.43h9c33.43 0 64.48-17.34 87.45-48.83 21.78-29.85 33.77-69.26 33.77-111s-11.99-81.08-33.77-110.94z"/>
<rect class="cls-1" x="77.09" y="90.97" width="49.97" height="41.25"/>
<rect class="cls-1" x="77.09" y="200.87" width="49.97" height="41.25"/>
<polygon class="cls-2" points="349.63 322.82 563.51 322.82 563.51 287.82 386.43 287.82 386.43 174.43 544.68 174.43 544.68 139.43 386.43 139.43 386.43 35 563.51 35 563.51 0 349.63 0"/>
<polygon class="cls-2" points="634.78 318.32 653.61 318.32 653.61 172.62 805.59 172.62 805.59 155.58 653.61 155.58 653.61 21.54 824.41 21.54 824.41 4.5 634.78 4.5"/>
<polygon class="cls-2" points="919 4.5 900.17 4.5 900.17 318.32 1081.7 318.32 1081.7 301.29 919 301.29"/>
<rect class="cls-2" x="1151.7" y="4.5" width="18.83" height="313.82"/>
<polygon class="cls-2" points="1474 4.5 1451.2 4.5 1356.6 146.17 1262.4 4.5 1239.6 4.5 1346.2 161.41 1239.6 318.32 1262 318.32 1356.6 176.21 1451.6 318.32 1474 318.32 1367.3 161.41"/>
<path class="cls-3" transform="translate(5278.3 1258.7)" d="m-4639.8-847.65v-55.3h19.51c15.17 0 26.86 10.19 26.86 27.65s-11.69 27.65-26.86 27.65zm8.05-47.64v40h11.46c9.09 0 19-5.77 19-20s-9.87-20-19-20z"/>
<path class="cls-3" transform="translate(5278.3 1258.7)" d="m-4547.6-895.37h-28.52v15.49h25.2v7.58h-25.2v17.07h28.52v7.58h-36.58v-55.3h36.58z"/>
<path class="cls-3" transform="translate(5278.3 1258.7)" d="m-4496-867.4h8.3c-2.76 12.72-13 20.86-26.31 20.86-15.88 0-27.89-11.53-27.89-28.76s12-28.76 27.89-28.76c13.27 0 23.55 8.14 26.31 20.86h-8.38c-2.13-7.82-8.21-13.35-17.93-13.35-12.64 0-19.83 9.32-19.83 21.25s7.15 21.3 19.84 21.3c9.67 0 15.83-5.58 18-13.4z"/>
<path class="cls-3" transform="translate(5278.3 1258.7)" d="M-4443.5-895.37H-4472v15.49h25.21v7.58H-4472v17.07h28.52v7.58h-36.58v-55.3h36.58Z"/>
<path class="cls-3" transform="translate(5278.3 1258.7)" d="m-4390.4-847.65h-8.06l-27.73-41.71v41.71h-8.06v-55.3h8.06l27.73 41.48v-41.48h8.06z"/>
<path class="cls-3" transform="translate(5278.3 1258.7)" d="m-4357.8-895.37v47.72h-8.06v-47.72h-16.67v-7.58h41.4v7.58z"/>
<path class="cls-3" transform="translate(5278.3 1258.7)" d="m-4306.2-869.22 13 21.57h-8.93l-12-20.7h-11.14v20.7h-8.05v-55.3h21.72c9.72 0 17.7 6.63 17.7 17.3 0.02 8.53-5.11 14.65-12.3 16.43zm-19.05-6.55h13.75c5.38 0 9.64-3.87 9.64-9.88s-4.26-9.72-9.72-9.72h-13.67z"/>
<path class="cls-3" transform="translate(5278.3 1258.7)" d="m-4236.9-847.65h-8.69l-4.67-11.77h-26.46l-4.59 11.77h-8.71l22.68-55.3h7.74zm-37.06-18.88h20.94l-10.43-26.7z"/>
<path class="cls-3" transform="translate(5278.3 1258.7)" d="m-4222-855.23h25.28v7.58h-33.33v-55.3h8.06z"/>
<path class="cls-3" transform="translate(5278.3 1258.7)" d="m-4180.8-902.95v55.3h-8.05v-55.3z"/>
<path class="cls-3" transform="translate(5278.3 1258.7)" d="m-4134-897-26.87 41.8h26.79v7.58h-37.45v-5.92l26.7-41.8h-26.07v-7.58h36.9z"/>
<path class="cls-3" transform="translate(5278.3 1258.7)" d="m-4088.2-895.37h-28.52v15.49h25.21v7.58h-25.21v17.07h28.52v7.58h-36.58v-55.3h36.58z"/>
<path class="cls-3" transform="translate(5278.3 1258.7)" d="m-4078.9-847.65v-55.3h19.51c15.17 0 26.87 10.19 26.87 27.65s-11.7 27.65-26.87 27.65zm8.06-47.64v40h11.45c9.09 0 19-5.77 19-20s-9.88-20-19-20z"/>
<path class="cls-3" transform="translate(5278.3 1258.7)" d="m-3997.8-899.95v23.62h26.8v3h-26.79v25.67h-3.32v-55.3h33.42v3z"/>
<path class="cls-3" transform="translate(5278.3 1258.7)" d="m-3953-847.65h-3.32v-55.3h3.32z"/>
<path class="cls-3" transform="translate(5278.3 1258.7)" d="m-3906.5-850.65v3h-32v-55.3h3.32v52.3z"/>
<path class="cls-3" transform="translate(5278.3 1258.7)" d="m-3871.7-867.87 21.1-35.08h3.32v55.3h-3.32v-49.06l-20 32.71h-2.21l-20-32.71v49.06h-3.32v-55.3h3.32z"/>
<path class="cls-3" transform="translate(5278.3 1258.7)" d="M-3832.27-862.66c.47,8.46,7.58,13,16.51,13,9.09,0,15-6.24,15.17-12.41.16-9.32-9-12.08-16.51-13.66-8.38-1.9-16.36-4.59-16.12-14.46.16-8.93,8.3-13.75,17.54-13.75,10.19,0,16.51,6.64,16.67,14.7h-3.24c-.39-7.59-6.4-11.78-13.51-11.78-7.74,0-14.06,4-14.14,10.83-.16,8.21,7,9.79,14.54,11.53,8.53,1.9,18.25,5.38,18.09,16.59-.16,7.35-6.95,15.33-18.41,15.33-10.82,0-19.91-6.08-19.91-16Z"/>
<path class="cls-3" transform="translate(5278.3 1258.7)" d="m-3784.5-851.83a2.53 2.53 0 0 1 2.61 2.6 2.53 2.53 0 0 1-2.61 2.61 2.53 2.53 0 0 1-2.61-2.61 2.53 2.53 0 0 1 2.61-2.6z"/>
</svg>
